<svg xmlns="http://www.w3.org/2000/svg" version="1.1" xmlns:xlink="http://www.w3.org/1999/xlink" xmlns:svgjs="http://svgjs.dev/svgjs" width="1600" height="560" preserveAspectRatio="none" viewBox="0 0 1600 560"><g mask="url(&quot;#SvgjsMask1652&quot;)" fill="none"><rect width="1600" height="560" x="0" y="0" fill="url(&quot;#SvgjsLinearGradient1653&quot;)"></rect><path d="M0 454.94L10 497.28L20 432.66L30 447.26L40 500.47L50 513.5L60 448.17L70 518.03L80 523.49L90 531.97L100 533.34L110 540.73L120 503.15L130 463.06L140 511.75L150 494.42L160 541.15L170 528.59L180 495.74L190 548.52L200 535.31L210 494.43L220 469.57L230 435.51L240 426.98L250 379.31L260 398.11L270 366.78L280 343.81L290 329.59L300 314.88L310 370.99L320 316.93L330 366.34L340 330.02L350 289.52L360 236.09L370 208.9L380 271.96L390 275.41L400 340.56L410 379.46L420 420.15L430 398.37L440 353.4L450 321.02L460 387.01L470 343.12L480 285L490 230.84L500 233.14L510 276.05L520 287.75L530 305.88L540 367.93L550 436.72L560 448.06L570 479.6L580 492.52L590 458.01L600 432.21L610 500.76L620 446.34L630 424.45L640 481.54L650 432.12L660 388.51L670 389.05L680 375.6L690 310.65L700 292.1L710 326.81L720 347.23L730 406.97L740 455.99L750 386.12L760 420.6L770 358.07L780 320.58L790 318.64L800 308.56L810 313.22L820 308.52L830 258.46L840 268.85L850 207.27L860 210.93L870 218.03L880 244.56L890 292.55L900 228.57L910 163.24L920 188.97L930 252.16L940 298.16L950 364.03L960 396.74L970 390.99L980 441.42L990 393.93L1000 396.75L1010 430.25L1020 365.36L1030 347.73L1040 381.75L1050 447.61L1060 405.73L1070 464.18L1080 507.24L1090 453.25L1100 462.92L1110 416.41L1120 442.31L1130 458.41L1140 440.43L1150 498.84L1160 531.25L1170 528.04L1180 513.7L1190 534.82L1200 518.07L1210 503.88L1220 553.92L1230 517.36L1240 462.4L1250 464.75L1260 497.06L1270 547.62L1280 525.35L1290 531.76L1300 477.14L1310 454.08L1320 410.98L1330 359.26L1340 296.32L1350 315.82L1360 309.59L1370 242.7L1380 215.15L1390 182.75L1400 176.18L1410 225.94L1420 188.16L1430 181.33L1440 144.2L1450 75.59L1460 31.36L1470 64.15L1480 93.31L1490 138.41L1500 199.35L1510 141.14L1520 140.36L1530 191.32L1540 196.16L1550 219.94L1560 196.78L1570 242.18L1580 226.7L1590 185.63L1600 202.68" stroke="#224b75" stroke-width="2"></path><path d="M0 454.94L10 497.28L20 432.66L30 447.26L40 500.47L50 513.5L60 448.17L70 518.03L80 523.49L90 531.97L100 533.34L110 540.73L120 503.15L130 463.06L140 511.75L150 494.42L160 541.15L170 528.59L180 495.74L190 548.52L200 535.31L210 494.43L220 469.57L230 435.51L240 426.98L250 379.31L260 398.11L270 366.78L280 343.81L290 329.59L300 314.88L310 370.99L320 316.93L330 366.34L340 330.02L350 289.52L360 236.09L370 208.9L380 271.96L390 275.41L400 340.56L410 379.46L420 420.15L430 398.37L440 353.4L450 321.02L460 387.01L470 343.12L480 285L490 230.84L500 233.14L510 276.05L520 287.75L530 305.88L540 367.93L550 436.72L560 448.06L570 479.6L580 492.52L590 458.01L600 432.21L610 500.76L620 446.34L630 424.45L640 481.54L650 432.12L660 388.51L670 389.05L680 375.6L690 310.65L700 292.1L710 326.81L720 347.23L730 406.97L740 455.99L750 386.12L760 420.6L770 358.07L780 320.58L790 318.64L800 308.56L810 313.22L820 308.52L830 258.46L840 268.85L850 207.27L860 210.93L870 218.03L880 244.56L890 292.55L900 228.57L910 163.24L920 188.97L930 252.16L940 298.16L950 364.03L960 396.74L970 390.99L980 441.42L990 393.93L1000 396.75L1010 430.25L1020 365.36L1030 347.73L1040 381.75L1050 447.61L1060 405.73L1070 464.18L1080 507.24L1090 453.25L1100 462.92L1110 416.41L1120 442.31L1130 458.41L1140 440.43L1150 498.84L1160 531.25L1170 528.04L1180 513.7L1190 534.82L1200 518.07L1210 503.88L1220 553.92L1230 517.36L1240 462.4L1250 464.75L1260 497.06L1270 547.62L1280 525.35L1290 531.76L1300 477.14L1310 454.08L1320 410.98L1330 359.26L1340 296.32L1350 315.82L1360 309.59L1370 242.7L1380 215.15L1390 182.75L1400 176.18L1410 225.94L1420 188.16L1430 181.33L1440 144.2L1450 75.59L1460 31.36L1470 64.15L1480 93.31L1490 138.41L1500 199.35L1510 141.14L1520 140.36L1530 191.32L1540 196.16L1550 219.94L1560 196.78L1570 242.18L1580 226.7L1590 185.63L1600 202.68L1600 560L0 560z" fill="url(&quot;#SvgjsLinearGradient1654&quot;)"></path></g><defs><mask id="SvgjsMask1652"><rect width="1600" height="560" fill="#ffffff"></rect></mask><linearGradient x1="50%" y1="0%" x2="50%" y2="100%" gradientUnits="userSpaceOnUse" id="SvgjsLinearGradient1653"><stop stop-color="rgba(14, 42, 71, 1)" offset="0"></stop><stop stop-color="rgba(193, 192, 119, 1)" offset="1"></stop></linearGradient><linearGradient x1="50%" y1="0%" x2="50%" y2="100%" id="SvgjsLinearGradient1654"><stop stop-opacity="0.65" stop-color="#224b75" offset="0"></stop><stop stop-opacity="0" stop-color="#508dcc" offset="0.8"></stop></linearGradient></defs></svg>